<svg id="svg" version="1.1" xmlns="http://www.w3.org/2000/svg" xmlns:xlink="http://www.w3.org/1999/xlink" width="400" height="400" viewBox="0, 0, 400,400"><g id="svgg"><path id="path0" d="M181.800 10.961 C 180.286 11.323,179.771 11.639,179.680 12.259 C 179.556 13.107,175.030 13.600,167.363 13.600 C 164.292 13.600,162.898 14.089,162.426 15.333 C 162.082 16.237,161.840 16.292,157.004 16.561 C 151.057 16.891,150.000 17.192,150.000 18.553 C 150.000 19.497,149.888 19.533,146.100 19.803 C 142.047 20.092,140.640 20.613,140.203 21.989 C 140.033 22.528,139.586 22.809,138.873 22.826 C 135.906 22.897,133.003 23.851,132.478 24.928 C 132.043 25.822,131.694 26.000,130.374 26.000 C 129.287 26.000,128.578 26.250,128.107 26.800 C 127.730 27.240,127.040 27.600,126.573 27.600 C 126.106 27.600,125.398 27.960,125.000 28.400 C 124.602 28.840,123.948 29.200,123.547 29.200 C 122.274 29.200,118.401 30.974,118.183 31.657 C 118.068 32.018,117.664 32.418,117.287 32.545 C 116.909 32.673,116.330 32.952,116.000 33.167 C 115.670 33.381,114.724 33.665,113.898 33.797 C 112.660 33.995,112.293 34.281,111.818 35.419 C 111.312 36.630,111.064 36.800,109.805 36.800 C 108.665 36.800,108.035 37.131,106.753 38.400 C 105.632 39.510,104.789 40.000,104.004 40.000 C 102.924 40.000,100.800 41.876,100.800 42.831 C 100.800 43.034,100.093 43.200,99.229 43.200 C 97.526 43.200,96.400 43.998,96.400 45.205 C 96.400 45.765,95.974 46.037,94.700 46.289 C 93.422 46.542,92.801 46.939,92.200 47.889 C 91.709 48.665,90.936 49.255,90.200 49.416 C 88.499 49.788,87.200 50.700,87.200 51.522 C 87.200 51.935,86.707 52.411,86.002 52.677 C 85.343 52.926,84.497 53.664,84.122 54.317 C 83.645 55.147,82.895 55.670,81.632 56.053 C 80.264 56.467,79.769 56.838,79.599 57.577 C 79.425 58.334,78.972 58.657,77.587 59.011 C 76.604 59.262,75.440 59.667,75.000 59.912 C 74.560 60.156,73.558 60.458,72.774 60.582 C 71.862 60.727,70.854 61.318,69.974 62.225 L 68.600 63.641 68.398 68.320 C 68.287 70.894,68.306 73.665,68.440 74.478 C 68.742 76.305,68.289 76.800,66.315 76.800 C 64.875 76.800,63.778 77.208,62.400 78.256 C 62.070 78.508,60.990 78.836,60.000 78.986 C 57.172 79.414,56.831 79.581,56.174 80.850 C 55.835 81.506,55.207 82.393,54.779 82.821 C 54.350 83.250,54.000 84.011,54.000 84.512 C 54.000 85.148,53.654 85.555,52.862 85.854 C 50.158 86.875,50.805 96.000,53.582 96.000 C 53.812 96.000,54.001 96.495,54.002 97.100 C 54.010 100.788,56.145 103.316,59.597 103.725 C 61.751 103.980,62.597 104.368,61.700 104.688 C 61.425 104.786,61.200 105.109,61.200 105.405 C 61.200 106.363,64.667 106.440,102.700 106.319 L 140.000 106.200 140.000 107.700 C 140.000 108.891,139.848 109.200,139.262 109.200 C 138.008 109.200,137.200 110.505,137.200 112.531 C 137.200 114.479,138.164 116.000,139.399 116.000 C 139.728 116.000,140.695 116.630,141.547 117.400 C 143.690 119.335,146.232 119.430,146.922 117.600 L 147.375 116.400 237.108 116.400 L 326.841 116.400 327.412 117.766 C 327.820 118.743,328.316 119.206,329.151 119.389 C 330.571 119.701,330.787 120.375,330.795 124.513 C 330.799 127.131,330.689 127.659,330.100 127.841 C 328.705 128.272,328.198 128.698,328.072 129.541 L 327.944 130.400 180.872 130.428 C 22.858 130.459,28.297 130.395,26.312 132.238 C 25.591 132.908,24.505 133.762,23.900 134.137 C 23.235 134.549,22.799 135.171,22.797 135.709 C 22.796 136.279,22.362 136.846,21.594 137.283 C 19.897 138.249,19.599 139.395,19.606 144.926 C 19.613 150.428,20.003 151.729,21.709 151.927 C 22.646 152.035,22.800 152.236,22.800 153.348 C 22.800 154.978,24.977 157.477,26.870 158.020 C 27.672 158.250,46.083 158.400,73.511 158.400 L 118.828 158.400 118.372 159.253 C 117.489 160.902,118.052 168.578,119.140 169.736 C 120.640 171.333,118.938 171.308,235.165 171.441 C 311.477 171.529,346.660 171.700,346.945 171.985 C 347.173 172.213,347.752 172.400,348.230 172.400 C 349.234 172.400,349.603 173.629,349.596 176.950 C 349.584 182.358,349.010 182.800,341.992 182.800 C 338.466 182.800,338.297 182.842,337.138 184.000 C 335.906 185.232,333.166 185.715,332.600 184.800 C 332.461 184.575,330.537 184.400,328.200 184.400 C 325.863 184.400,323.939 184.575,323.800 184.800 C 323.478 185.321,320.122 185.321,319.800 184.800 C 319.638 184.538,306.801 184.400,282.590 184.400 C 246.038 184.400,245.623 184.391,245.200 183.600 C 244.773 182.803,244.362 182.800,132.061 182.800 L 19.350 182.800 18.236 183.963 C 17.623 184.602,16.532 185.236,15.812 185.371 C 14.917 185.539,13.852 186.316,12.451 187.821 L 10.400 190.024 10.400 197.784 C 10.400 206.022,10.572 206.800,12.397 206.800 C 12.907 206.800,13.224 207.204,13.418 208.100 C 13.751 209.631,14.190 209.986,15.769 209.994 C 16.411 209.997,17.285 210.315,17.709 210.700 C 18.336 211.268,19.399 211.425,23.341 211.531 C 26.013 211.602,28.371 211.827,28.580 212.031 C 29.086 212.523,30.689 212.503,31.000 212.000 C 31.341 211.448,98.259 211.448,98.600 212.000 C 98.736 212.220,100.097 212.400,101.624 212.400 C 103.208 212.400,104.400 212.228,104.400 212.000 C 104.400 211.754,106.387 211.600,109.560 211.600 L 114.720 211.600 114.860 216.768 C 114.991 221.589,115.065 222.006,115.970 222.968 L 116.939 224.000 231.008 224.000 C 356.184 224.000,345.714 223.809,346.530 226.108 C 346.668 226.498,347.311 226.922,347.959 227.052 C 349.910 227.442,350.294 235.200,348.362 235.200 C 347.943 235.200,347.240 235.560,346.800 236.000 C 346.360 236.440,345.848 236.800,345.662 236.800 C 345.476 236.800,344.998 237.160,344.600 237.600 C 343.818 238.464,340.664 238.751,340.200 238.000 C 340.064 237.780,339.524 237.600,339.000 237.600 C 338.476 237.600,337.936 237.780,337.800 238.000 C 337.486 238.508,50.332 238.558,49.780 238.050 C 49.013 237.344,28.417 237.090,28.151 237.783 C 27.966 238.266,27.237 238.400,24.793 238.400 C 21.727 238.400,19.600 239.539,19.600 241.181 C 19.600 241.356,19.057 241.609,18.393 241.741 C 16.639 242.092,16.400 243.171,16.400 250.729 C 16.400 260.121,17.411 262.482,21.675 263.048 C 23.353 263.270,23.600 263.423,23.600 264.237 C 23.600 265.965,23.257 265.953,74.734 266.070 L 124.400 266.182 124.402 268.191 C 124.406 271.408,125.025 273.061,126.409 273.543 C 127.064 273.772,127.600 274.236,127.600 274.575 C 127.600 275.199,128.279 276.180,129.882 277.870 L 130.764 278.800 229.882 278.813 L 329.000 278.825 329.800 279.913 C 330.915 281.428,330.990 287.837,329.900 288.447 C 329.515 288.663,329.200 289.101,329.200 289.420 C 329.200 289.926,311.476 290.003,191.100 290.023 C 42.952 290.047,50.720 289.933,49.683 292.100 C 49.267 292.969,48.881 293.200,47.848 293.200 C 46.431 293.200,44.800 294.547,44.800 295.718 C 44.800 296.103,44.359 296.495,43.757 296.647 C 40.365 297.498,40.816 311.600,44.236 311.600 C 44.595 311.600,44.800 312.032,44.800 312.786 C 44.800 313.562,45.076 314.120,45.600 314.400 C 46.040 314.635,46.400 315.060,46.400 315.344 C 46.400 315.628,46.864 316.297,47.432 316.830 L 48.464 317.800 99.389 317.907 C 143.795 318.001,150.377 318.091,150.806 318.607 C 151.077 318.933,151.534 319.200,151.822 319.200 C 152.110 319.200,152.460 319.560,152.600 320.000 C 152.740 320.440,153.014 320.800,153.209 320.800 C 153.739 320.800,155.600 322.763,155.600 323.322 C 155.600 323.589,155.960 324.032,156.400 324.307 C 156.840 324.582,157.200 325.222,157.200 325.730 C 157.200 327.740,160.646 330.400,163.250 330.400 C 164.517 330.400,165.664 330.580,165.800 330.800 C 166.142 331.353,277.458 331.353,277.800 330.800 C 278.168 330.205,279.644 330.316,280.366 330.995 C 280.715 331.322,281.561 332.087,282.247 332.695 C 283.634 333.924,284.115 336.202,283.718 339.666 C 283.497 341.593,283.330 341.748,280.818 342.362 C 280.204 342.512,279.747 342.977,279.600 343.601 L 279.364 344.600 248.182 344.703 C 215.332 344.812,215.498 344.818,216.542 343.664 C 217.150 342.992,217.119 342.872,216.075 341.872 L 214.956 340.800 207.963 340.800 C 201.759 340.800,200.792 340.890,199.400 341.600 C 198.134 342.246,197.041 342.400,193.739 342.400 C 191.443 342.400,189.539 342.576,189.400 342.800 C 188.935 343.552,187.663 343.201,186.449 341.987 L 185.236 340.775 179.024 340.707 L 172.811 340.640 171.600 341.800 L 170.390 342.959 171.995 344.595 C 173.806 346.440,173.960 347.150,172.781 348.218 C 171.188 349.659,171.851 351.345,174.138 351.669 C 175.204 351.821,176.374 352.205,176.738 352.523 C 177.102 352.842,178.251 353.225,179.291 353.374 C 180.331 353.524,181.286 353.816,181.414 354.023 C 181.542 354.230,182.369 354.400,183.252 354.400 C 184.145 354.400,185.123 354.666,185.457 355.000 C 185.990 355.533,185.015 355.600,176.678 355.600 C 168.969 355.600,167.212 355.497,166.816 355.020 C 166.551 354.700,165.494 354.314,164.467 354.161 C 163.440 354.008,162.186 353.612,161.679 353.282 C 160.984 352.828,159.071 352.634,153.879 352.491 C 150.096 352.387,146.818 352.158,146.596 351.981 C 146.374 351.805,144.314 351.455,142.019 351.202 C 139.320 350.905,137.697 350.542,137.423 350.173 C 137.171 349.832,135.952 349.510,134.400 349.372 C 132.970 349.245,131.170 348.898,130.400 348.600 C 129.630 348.302,127.754 347.959,126.231 347.838 C 124.029 347.662,123.250 347.417,122.431 346.641 C 121.628 345.881,120.824 345.618,118.800 345.451 C 109.474 344.682,110.099 344.805,109.614 343.634 C 109.148 342.509,106.592 341.818,101.600 341.466 C 99.819 341.341,99.822 341.339,101.911 341.270 C 103.071 341.231,105.186 340.979,106.611 340.709 L 109.200 340.218 109.200 338.371 C 109.200 337.032,108.980 336.325,108.400 335.800 C 107.960 335.402,107.600 334.682,107.600 334.200 C 107.600 333.718,107.240 332.998,106.800 332.600 C 106.360 332.202,106.000 331.491,106.000 331.021 C 106.000 330.543,105.245 329.425,104.285 328.483 L 102.570 326.800 97.671 326.800 C 94.154 326.800,92.522 326.958,91.886 327.361 C 90.698 328.114,84.519 328.086,84.227 327.327 C 83.852 326.349,77.092 326.614,76.162 327.643 C 75.502 328.374,75.132 328.449,73.400 328.208 C 69.030 327.599,68.592 328.034,68.191 333.388 C 67.671 340.319,69.114 343.657,72.891 344.261 C 74.233 344.476,74.400 344.630,74.400 345.660 C 74.400 346.506,74.669 346.940,75.400 347.273 C 75.950 347.523,76.400 348.049,76.400 348.441 C 76.400 349.318,76.943 349.686,79.000 350.200 C 80.328 350.532,80.622 350.787,80.727 351.700 C 80.796 352.305,81.192 352.981,81.605 353.203 C 82.019 353.424,83.188 354.324,84.203 355.203 C 85.358 356.202,86.451 356.803,87.124 356.807 C 88.208 356.814,89.638 358.005,90.116 359.300 C 90.296 359.786,90.807 360.000,91.787 360.000 C 93.087 360.000,93.200 360.095,93.200 361.186 C 93.200 362.623,94.109 363.200,96.374 363.200 C 97.553 363.200,98.000 363.365,98.000 363.800 C 98.000 364.130,98.241 364.400,98.536 364.400 C 98.830 364.400,99.277 364.850,99.527 365.400 C 99.778 365.950,100.193 366.400,100.450 366.400 C 100.707 366.400,101.686 367.030,102.626 367.800 C 103.566 368.570,104.484 369.197,104.667 369.193 C 105.522 369.176,108.755 371.077,108.929 371.700 C 109.037 372.085,109.429 372.400,109.799 372.400 C 110.170 372.400,110.931 372.760,111.491 373.200 C 112.050 373.640,113.014 374.000,113.632 374.000 C 114.460 374.000,114.894 374.286,115.278 375.084 C 115.791 376.151,116.724 376.555,119.864 377.071 C 120.627 377.197,121.202 377.564,121.316 377.999 C 121.604 379.101,123.281 380.000,125.549 380.269 C 126.830 380.420,127.600 380.705,127.600 381.027 C 127.600 382.125,129.591 383.118,132.345 383.395 C 134.932 383.654,135.117 383.741,135.643 384.935 C 136.098 385.968,136.457 386.219,137.600 386.301 C 141.712 386.599,142.400 386.812,142.400 387.785 C 142.400 389.088,144.099 389.600,148.427 389.600 C 152.420 389.600,153.200 389.795,153.200 390.794 C 153.200 392.276,154.311 392.595,159.961 392.734 L 165.400 392.868 166.682 394.094 C 168.440 395.778,169.884 395.948,182.627 395.976 L 193.454 396.000 195.800 397.200 C 198.576 398.620,207.751 399.016,209.376 397.787 C 209.890 397.399,211.114 397.200,212.987 397.200 C 214.790 397.200,216.118 396.993,216.634 396.632 C 217.281 396.178,219.908 396.036,229.623 395.932 L 241.800 395.800 243.700 394.662 C 244.745 394.036,245.600 393.361,245.600 393.162 C 245.600 392.963,247.625 392.799,250.100 392.798 C 255.728 392.795,257.600 392.344,257.600 390.989 C 257.600 389.832,258.035 389.705,262.766 389.483 C 266.122 389.325,267.113 388.862,267.670 387.189 C 267.744 386.968,269.063 386.680,270.602 386.547 C 273.634 386.285,274.994 385.679,275.397 384.411 C 275.582 383.826,276.000 383.600,276.894 383.600 C 281.223 383.600,284.306 382.520,283.623 381.243 C 283.202 380.457,283.274 380.397,284.686 380.360 C 286.957 380.300,287.896 379.929,289.333 378.523 C 290.260 377.616,291.212 377.150,292.617 376.914 C 294.229 376.644,294.744 376.346,295.398 375.307 C 295.916 374.482,296.529 374.025,297.129 374.015 C 298.268 373.997,301.430 372.190,302.843 370.751 C 303.417 370.167,304.451 369.565,305.141 369.413 C 305.831 369.261,306.546 368.868,306.730 368.539 C 307.049 367.970,307.777 367.473,309.985 366.316 C 310.526 366.032,311.555 365.215,312.271 364.500 C 313.048 363.724,313.978 363.200,314.577 363.200 C 315.204 363.200,315.825 362.828,316.230 362.211 C 316.634 361.593,317.426 361.119,318.339 360.949 C 319.153 360.797,320.366 360.127,321.078 359.438 C 321.781 358.757,323.074 357.702,323.952 357.093 C 325.028 356.346,325.589 355.634,325.674 354.908 C 325.764 354.137,326.084 353.768,326.800 353.607 C 327.412 353.470,328.033 352.885,328.400 352.100 C 328.730 351.395,329.253 350.813,329.561 350.809 C 329.870 350.804,330.770 350.113,331.561 349.273 C 332.353 348.433,333.595 347.507,334.321 347.216 C 335.266 346.837,335.708 346.359,335.871 345.543 C 336.018 344.812,336.350 344.400,336.795 344.400 C 337.567 344.400,339.600 342.546,339.600 341.843 C 339.600 341.597,340.121 341.165,340.758 340.883 C 341.394 340.601,342.119 339.879,342.367 339.279 C 342.616 338.678,343.336 337.958,343.967 337.679 C 344.599 337.399,345.319 336.679,345.567 336.079 C 345.816 335.478,346.555 334.749,347.210 334.460 C 347.918 334.146,348.400 333.630,348.400 333.185 C 348.400 332.101,349.251 330.400,349.794 330.400 C 350.467 330.400,352.000 328.663,352.000 327.901 C 352.000 327.545,352.360 327.140,352.800 327.000 C 353.240 326.860,353.600 326.503,353.600 326.205 C 353.600 325.907,354.680 324.584,356.000 323.264 C 357.395 321.869,358.400 320.516,358.400 320.032 C 358.400 319.062,358.531 319.027,359.618 319.700 C 360.695 320.368,361.097 319.707,361.441 316.700 C 361.618 315.146,361.881 314.400,362.252 314.400 C 363.267 314.400,364.340 312.870,364.617 311.029 C 364.855 309.439,365.017 309.200,365.855 309.200 C 366.945 309.200,367.374 308.382,367.811 305.463 C 368.026 304.033,368.259 303.600,368.817 303.600 C 369.996 303.600,370.800 302.463,370.800 300.795 C 370.800 299.055,371.267 298.516,372.004 299.404 C 373.519 301.230,375.298 299.668,375.158 296.634 C 375.083 295.015,375.235 294.224,375.728 293.680 C 376.097 293.271,376.400 292.582,376.400 292.149 C 376.400 291.715,376.571 291.189,376.780 290.980 C 376.988 290.771,377.213 289.347,377.280 287.817 C 377.392 285.223,377.468 285.017,378.397 284.799 C 379.674 284.500,380.386 283.075,380.397 280.800 C 380.404 279.233,380.556 278.914,381.574 278.335 C 383.006 277.520,383.595 275.649,383.598 271.900 C 383.599 269.926,383.743 269.200,384.130 269.200 C 385.563 269.200,386.352 267.457,386.638 263.661 C 386.890 260.323,387.015 259.885,387.816 259.520 C 389.230 258.876,389.561 257.711,389.685 252.958 L 389.800 248.516 391.300 246.857 L 392.800 245.198 392.800 237.562 C 392.800 230.532,392.863 229.846,393.600 228.909 C 394.040 228.350,394.400 227.640,394.400 227.332 C 394.400 227.024,394.715 226.291,395.100 225.704 C 395.972 224.373,396.388 194.061,395.636 186.592 C 395.222 182.478,393.974 178.400,393.129 178.400 C 392.948 178.400,392.800 174.968,392.800 170.774 C 392.800 162.824,392.710 162.322,390.932 160.423 C 389.747 159.157,389.665 158.773,389.504 153.728 C 389.373 149.611,388.780 148.000,387.395 148.000 C 387.076 148.000,386.821 146.759,386.636 144.300 C 386.347 140.452,385.796 139.043,384.411 138.603 C 383.731 138.388,383.600 138.004,383.600 136.223 C 383.600 132.694,383.227 131.589,381.740 130.712 C 380.464 129.959,380.400 129.810,380.400 127.591 C 380.400 125.160,379.102 122.800,377.764 122.800 C 377.359 122.800,377.198 122.266,377.195 120.900 C 377.186 118.003,376.865 117.275,375.356 116.730 C 374.005 116.241,374.000 116.230,373.987 113.620 C 373.973 110.765,373.537 109.860,371.867 109.226 C 371.235 108.985,370.800 108.514,370.800 108.070 C 370.800 106.526,369.916 104.794,369.012 104.567 C 368.246 104.375,368.061 103.985,367.838 102.086 C 367.562 99.738,366.751 98.400,365.602 98.400 C 365.085 98.400,364.806 97.753,364.405 95.627 C 363.865 92.765,360.554 88.381,359.824 89.562 C 359.284 90.436,358.400 90.018,358.400 88.889 C 358.400 87.529,357.427 86.067,356.216 85.606 C 355.646 85.389,355.220 84.802,355.063 84.013 C 354.878 83.088,354.498 82.653,353.604 82.341 C 352.788 82.057,352.320 81.576,352.164 80.860 C 351.753 78.972,351.631 78.781,350.406 78.085 C 349.742 77.708,349.102 77.104,348.986 76.743 C 348.688 75.823,343.970 71.200,343.328 71.200 C 343.038 71.200,342.800 70.958,342.800 70.662 C 342.800 70.366,342.440 69.798,342.000 69.400 C 341.560 69.002,341.200 68.335,341.200 67.919 C 341.200 67.480,340.737 66.951,340.100 66.662 C 337.980 65.698,336.526 64.652,336.165 63.830 C 335.964 63.373,335.219 62.730,334.509 62.400 C 333.798 62.070,333.213 61.599,333.209 61.354 C 333.190 60.418,331.519 58.800,330.571 58.800 C 329.808 58.800,329.600 58.591,329.600 57.823 C 329.600 56.642,328.246 55.600,326.711 55.600 C 325.596 55.600,325.114 54.629,326.071 54.310 C 326.937 54.021,325.971 53.204,324.251 52.771 C 322.847 52.418,322.484 52.123,322.175 51.091 C 321.892 50.144,321.482 49.758,320.500 49.508 C 319.785 49.326,319.200 48.944,319.200 48.658 C 319.200 47.838,317.439 46.400,316.436 46.400 C 315.098 46.400,313.286 45.196,313.018 44.129 C 312.830 43.380,312.516 43.200,311.392 43.200 C 310.510 43.200,310.000 43.008,310.000 42.675 C 310.000 41.694,307.813 40.000,306.548 40.000 C 305.359 40.000,303.600 38.638,303.600 37.717 C 303.600 37.209,302.669 36.800,301.512 36.800 C 301.060 36.800,299.908 36.080,298.954 35.200 C 297.607 33.959,296.899 33.600,295.796 33.600 C 294.902 33.600,294.290 33.378,294.145 33.000 C 294.018 32.670,293.658 32.400,293.345 32.400 C 293.031 32.400,292.676 32.143,292.555 31.828 C 292.309 31.185,290.345 30.400,288.983 30.400 C 288.489 30.400,287.982 30.130,287.855 29.800 C 287.722 29.453,287.124 29.200,286.440 29.200 C 285.610 29.200,285.179 28.963,285.003 28.410 C 284.544 26.963,282.844 26.000,280.746 26.000 C 279.360 26.000,278.800 25.842,278.800 25.449 C 278.800 24.214,275.497 22.857,272.398 22.818 C 271.242 22.803,270.905 22.595,270.480 21.636 C 269.825 20.155,269.641 20.095,264.818 19.762 C 260.960 19.497,260.800 19.449,260.800 18.557 C 260.800 17.164,259.865 16.889,254.073 16.574 C 249.108 16.304,248.818 16.244,249.400 15.600 C 250.614 14.258,249.318 13.962,240.322 13.526 C 235.635 13.299,231.741 12.955,231.668 12.762 C 231.596 12.569,231.207 12.003,230.804 11.505 L 230.071 10.600 206.936 10.541 C 190.179 10.499,183.249 10.614,181.800 10.961 M220.000 17.805 C 223.230 18.504,233.012 19.526,239.741 19.867 C 244.233 20.095,244.961 20.233,246.106 21.080 C 246.818 21.605,248.930 22.503,250.800 23.074 C 252.670 23.646,255.730 24.611,257.600 25.219 C 259.470 25.828,261.900 26.452,263.000 26.607 C 264.100 26.762,265.810 27.388,266.800 27.997 C 267.790 28.606,269.801 29.484,271.269 29.948 C 272.737 30.411,274.537 31.137,275.269 31.559 C 276.001 31.982,277.646 32.539,278.924 32.797 C 280.461 33.108,281.703 33.666,282.590 34.445 C 283.328 35.093,284.804 35.882,285.871 36.199 C 286.937 36.515,288.435 37.236,289.199 37.799 C 289.963 38.363,291.267 39.028,292.097 39.276 C 292.927 39.525,294.280 40.304,295.103 41.007 C 295.926 41.710,297.000 42.412,297.489 42.567 C 297.979 42.721,299.243 43.441,300.299 44.168 C 301.355 44.894,302.624 45.617,303.120 45.775 C 303.616 45.932,304.816 46.722,305.786 47.530 C 308.081 49.442,310.478 51.155,312.601 52.400 C 315.882 54.325,322.232 59.654,328.569 65.800 C 330.384 67.560,333.293 70.318,335.034 71.928 C 341.101 77.539,342.674 79.249,345.200 82.978 C 345.530 83.465,347.051 85.153,348.581 86.728 C 351.057 89.279,355.200 95.181,355.200 96.157 C 355.200 96.489,356.445 98.252,359.609 102.400 C 360.196 103.170,360.928 104.496,361.235 105.346 C 361.543 106.197,362.183 107.312,362.658 107.825 C 363.133 108.337,363.971 109.738,364.520 110.937 C 365.069 112.137,365.876 113.476,366.313 113.913 C 366.750 114.350,367.502 115.764,367.983 117.054 C 368.464 118.344,369.194 119.761,369.606 120.201 C 370.017 120.642,370.834 122.082,371.421 123.401 C 372.008 124.721,372.829 126.532,373.244 127.426 C 373.660 128.321,374.000 129.419,374.000 129.867 C 374.000 131.000,374.788 133.207,375.621 134.405 C 376.005 134.958,376.723 136.758,377.217 138.405 C 377.710 140.052,378.455 142.081,378.872 142.913 C 379.289 143.745,380.075 146.140,380.619 148.235 C 381.164 150.330,381.981 152.548,382.436 153.164 C 382.983 153.903,383.396 155.355,383.653 157.442 C 384.148 161.450,384.940 165.964,385.999 170.800 C 386.826 174.577,387.270 179.024,387.989 190.709 C 388.195 194.070,388.478 197.002,388.616 197.226 C 388.934 197.740,388.876 215.954,388.554 216.474 C 388.337 216.825,387.923 220.839,386.795 233.524 C 386.346 238.574,386.009 240.314,384.812 243.776 C 384.360 245.083,383.809 247.751,383.588 249.703 C 383.327 252.008,382.848 253.922,382.222 255.156 C 381.237 257.101,380.278 260.458,379.834 263.517 C 379.697 264.462,379.410 265.542,379.197 265.917 C 378.983 266.293,378.258 268.021,377.586 269.757 C 376.913 271.493,375.741 274.085,374.981 275.517 C 374.222 276.949,373.600 278.345,373.600 278.620 C 373.600 278.894,373.067 280.131,372.416 281.369 C 371.765 282.607,371.124 284.290,370.992 285.110 C 370.682 287.026,367.757 292.995,366.257 294.771 C 365.621 295.525,364.835 296.785,364.512 297.571 C 364.188 298.357,363.593 299.360,363.188 299.800 C 362.784 300.240,361.946 301.523,361.327 302.650 C 359.586 305.818,357.934 308.520,357.200 309.400 C 356.833 309.840,356.019 311.100,355.391 312.200 C 354.764 313.300,353.296 315.324,352.131 316.698 C 350.966 318.072,349.532 319.958,348.944 320.889 C 348.356 321.820,346.553 323.969,344.938 325.665 C 343.322 327.362,342.000 328.920,342.000 329.128 C 342.000 329.634,330.832 340.801,327.800 343.328 C 325.328 345.387,319.801 350.328,317.205 352.800 C 316.396 353.570,314.153 355.184,312.219 356.387 C 310.286 357.591,308.446 358.968,308.131 359.449 C 307.816 359.930,307.149 360.426,306.650 360.552 C 306.150 360.677,304.945 361.380,303.971 362.113 C 302.997 362.847,301.570 363.697,300.800 364.002 C 300.030 364.307,298.770 365.035,298.000 365.620 C 297.230 366.205,295.970 366.924,295.200 367.217 C 294.430 367.511,293.248 368.163,292.573 368.668 C 291.897 369.172,290.547 369.865,289.573 370.208 C 288.598 370.551,287.170 371.336,286.400 371.953 C 285.630 372.569,284.280 373.304,283.400 373.585 C 282.520 373.865,280.900 374.592,279.800 375.200 C 278.700 375.807,276.810 376.528,275.600 376.801 C 274.390 377.074,272.856 377.625,272.191 378.025 C 271.527 378.425,269.549 379.146,267.796 379.627 C 266.043 380.107,263.707 381.005,262.605 381.622 C 261.502 382.238,258.821 383.212,256.646 383.786 C 254.471 384.360,252.401 384.985,252.046 385.175 C 251.341 385.552,248.385 386.111,243.400 386.809 C 238.473 387.499,237.943 387.602,237.156 388.024 C 231.547 391.025,181.616 390.999,172.200 387.990 C 170.220 387.357,166.629 386.544,164.221 386.183 C 161.812 385.821,159.022 385.205,158.021 384.813 C 157.019 384.421,154.850 383.868,153.200 383.585 C 151.530 383.298,149.034 382.491,147.570 381.765 C 146.124 381.048,143.784 380.252,142.370 379.997 C 140.957 379.742,139.530 379.300,139.200 379.013 C 138.190 378.137,135.442 376.882,133.905 376.593 C 133.103 376.443,131.861 375.887,131.145 375.359 C 130.429 374.831,128.874 374.036,127.691 373.593 C 126.507 373.151,124.877 372.268,124.069 371.632 C 123.261 370.996,122.029 370.358,121.331 370.213 C 120.633 370.068,119.283 369.443,118.331 368.824 C 117.379 368.205,115.700 367.406,114.600 367.049 C 113.500 366.692,111.970 365.860,111.200 365.201 C 110.430 364.541,109.586 364.001,109.324 364.001 C 109.063 364.000,108.050 363.325,107.073 362.500 C 106.097 361.675,104.095 360.280,102.625 359.400 C 97.610 356.398,96.598 355.655,92.800 352.192 C 90.710 350.287,88.460 348.450,87.800 348.110 C 85.990 347.178,85.228 345.606,86.197 344.803 C 86.840 344.269,90.889 345.207,95.040 346.853 C 96.773 347.540,99.328 348.143,101.597 348.400 C 104.645 348.745,105.633 349.035,107.080 350.012 C 108.732 351.127,112.536 352.233,118.099 353.216 C 119.143 353.400,120.151 353.646,120.338 353.762 C 120.526 353.878,122.931 354.323,125.683 354.751 C 129.167 355.293,131.341 355.861,132.836 356.618 C 134.784 357.606,135.579 357.738,141.403 358.047 C 146.670 358.326,148.359 358.573,150.811 359.419 C 154.017 360.526,156.159 360.733,173.400 361.603 C 178.240 361.847,182.869 362.222,183.686 362.435 C 184.504 362.649,188.978 362.766,193.637 362.695 L 202.103 362.566 203.046 361.383 C 204.491 359.572,202.279 356.356,198.242 354.398 C 197.517 354.046,196.948 353.431,196.875 352.920 C 196.628 351.189,197.683 351.144,240.354 351.070 L 280.600 351.000 283.200 349.423 C 288.043 346.486,291.609 342.126,291.886 338.805 C 292.048 336.867,289.634 330.932,288.119 329.540 C 283.441 325.247,283.284 325.143,280.925 324.786 C 279.646 324.593,253.360 324.452,222.511 324.473 L 166.421 324.511 164.957 323.394 C 164.151 322.780,163.202 321.743,162.846 321.090 C 161.254 318.165,158.007 314.946,154.600 312.915 C 153.470 312.241,150.514 312.188,103.600 312.000 C 49.752 311.784,52.819 311.920,51.008 309.670 C 47.735 305.605,48.788 300.494,53.400 298.057 L 55.400 297.000 190.049 296.939 C 285.877 296.895,325.518 296.750,327.541 296.436 C 330.313 296.006,333.200 294.946,333.200 294.359 C 333.200 294.197,333.809 293.689,334.553 293.229 C 336.085 292.282,336.419 291.575,337.592 286.800 C 338.651 282.486,337.929 278.861,335.396 275.769 C 331.839 271.428,330.183 271.033,316.400 271.240 C 310.570 271.328,270.700 271.311,227.800 271.201 C 184.900 271.092,147.730 271.059,145.200 271.128 C 135.342 271.395,132.867 270.304,131.217 264.960 C 129.246 258.578,134.181 259.102,75.460 259.045 L 28.573 259.000 26.089 257.400 C 21.575 254.493,21.825 247.818,26.554 244.954 C 27.768 244.219,31.930 244.195,187.600 244.000 L 347.400 243.800 349.672 242.735 C 355.839 239.844,358.527 229.176,354.400 223.967 C 352.146 221.123,349.608 218.766,348.050 218.070 C 346.726 217.479,337.099 217.420,237.400 217.392 C 177.340 217.374,126.898 217.211,125.307 217.029 C 121.752 216.622,121.606 216.452,121.100 212.107 C 120.617 207.966,120.165 207.156,117.675 205.975 L 115.800 205.086 88.400 205.343 C 54.512 205.661,21.612 205.118,19.327 204.204 C 17.098 203.312,16.665 202.368,16.478 197.997 C 16.280 193.378,16.683 192.668,20.000 191.796 C 21.822 191.317,120.599 190.778,148.200 191.097 C 161.343 191.249,341.371 191.129,342.400 190.968 C 346.689 190.296,350.983 189.041,351.695 188.252 C 357.563 181.748,358.068 173.663,352.961 168.009 C 349.857 164.574,356.412 164.754,237.600 164.842 C 180.290 164.885,132.770 164.903,132.000 164.883 C 126.954 164.753,125.981 163.698,126.606 159.039 C 127.577 151.794,131.926 152.391,77.400 152.286 C 27.414 152.189,31.534 152.465,28.492 149.009 C 24.862 144.885,26.642 139.075,31.987 137.599 C 33.583 137.159,69.594 137.097,218.000 137.278 C 272.670 137.345,320.010 137.400,323.200 137.400 C 328.083 137.400,329.221 137.282,330.400 136.657 C 332.101 135.754,335.462 132.580,336.200 131.181 C 337.146 129.385,338.379 125.328,338.214 124.551 C 336.795 117.862,336.252 116.676,333.429 114.096 C 329.069 110.111,339.583 110.512,242.400 110.627 C 142.178 110.745,146.832 110.923,149.034 107.073 C 150.385 104.710,150.395 101.158,149.054 99.817 C 147.474 98.238,146.740 98.206,114.600 98.331 C 84.574 98.448,66.920 98.069,63.800 97.239 C 59.951 96.215,58.449 91.844,60.534 87.731 C 61.529 85.767,62.054 85.376,64.800 84.554 C 65.350 84.390,113.950 84.243,172.800 84.228 L 279.800 84.200 283.200 82.545 C 288.169 80.126,288.631 79.583,290.149 74.365 C 290.947 71.626,290.976 69.370,290.244 67.114 C 289.938 66.171,289.580 64.925,289.448 64.345 C 289.193 63.227,285.486 59.408,283.677 58.400 C 282.741 57.878,277.224 57.795,241.400 57.758 C 199.065 57.715,196.664 57.646,197.092 56.469 C 197.603 55.067,199.216 53.401,201.072 52.360 C 204.007 50.715,204.337 46.941,201.650 45.762 C 198.863 44.540,176.740 45.415,168.600 47.069 C 165.552 47.689,161.386 48.166,157.184 48.377 C 152.099 48.632,148.998 49.038,143.784 50.131 C 140.053 50.913,135.560 51.731,133.800 51.948 C 132.040 52.164,129.201 52.799,127.492 53.357 C 125.782 53.915,122.564 54.559,120.339 54.787 C 117.200 55.109,115.775 55.466,113.970 56.384 C 112.632 57.063,110.199 57.817,108.243 58.159 C 106.373 58.485,103.618 59.282,102.121 59.930 C 100.434 60.660,98.390 61.191,96.741 61.327 C 94.854 61.483,93.345 61.921,91.541 62.836 C 89.575 63.833,88.460 64.133,86.612 64.162 C 82.721 64.224,83.189 63.363,89.425 59.000 C 91.527 57.529,94.832 54.840,95.475 54.078 C 95.890 53.587,97.855 52.304,102.175 49.706 C 102.820 49.318,104.071 48.326,104.953 47.502 C 105.835 46.678,106.922 45.888,107.369 45.746 C 107.816 45.605,109.061 44.884,110.136 44.144 C 111.210 43.405,112.316 42.800,112.593 42.800 C 112.869 42.800,113.974 42.105,115.048 41.257 C 116.121 40.408,117.646 39.503,118.435 39.247 C 119.225 38.990,120.469 38.339,121.200 37.800 C 121.931 37.260,123.445 36.552,124.565 36.226 C 125.684 35.899,127.410 35.122,128.400 34.498 C 129.390 33.874,130.830 33.128,131.600 32.839 C 132.370 32.550,133.849 31.876,134.886 31.340 C 135.924 30.804,137.724 30.086,138.886 29.745 C 140.049 29.404,141.901 28.614,143.002 27.989 C 144.120 27.355,145.974 26.729,147.202 26.572 C 148.411 26.417,151.110 25.695,153.200 24.968 C 155.290 24.241,158.170 23.433,159.600 23.173 C 161.030 22.913,163.280 22.195,164.600 21.578 C 167.696 20.132,167.807 20.108,172.983 19.788 C 177.367 19.517,182.837 18.788,186.600 17.972 C 191.359 16.940,215.448 16.820,220.000 17.805 M190.200 52.048 C 191.578 52.097,191.478 52.146,189.480 52.402 C 186.920 52.729,185.200 53.930,185.200 55.390 C 185.200 55.857,185.038 56.411,184.841 56.620 C 183.560 57.974,183.912 61.136,185.537 62.878 L 187.142 64.600 234.587 64.708 C 279.140 64.809,282.047 64.858,282.291 65.508 C 282.434 65.889,282.773 66.380,283.045 66.600 C 283.560 67.016,283.804 69.761,283.675 73.700 L 283.600 76.000 281.654 76.000 C 280.314 76.000,279.391 76.249,278.691 76.800 C 277.516 77.724,169.461 78.101,168.544 77.184 C 168.267 76.907,165.325 76.845,159.764 76.999 C 146.727 77.359,79.954 77.381,78.500 77.026 C 77.352 76.746,77.200 76.551,77.200 75.355 L 77.200 74.000 80.874 74.000 C 84.615 74.000,86.400 73.284,86.400 71.785 C 86.400 71.264,89.032 70.800,91.980 70.800 C 93.895 70.800,95.600 69.783,95.600 68.641 C 95.600 68.253,96.784 68.040,100.100 67.833 C 104.866 67.535,106.400 66.989,106.400 65.591 C 106.400 64.866,106.680 64.800,109.771 64.800 C 116.225 64.800,120.800 63.840,119.680 62.720 C 118.798 61.838,119.177 61.706,123.300 61.463 C 132.217 60.937,133.048 60.751,132.206 59.465 L 131.584 58.515 137.692 58.270 C 145.059 57.973,146.428 57.699,147.082 56.384 C 147.571 55.402,147.590 55.399,155.686 55.113 C 173.359 54.488,176.214 54.332,176.580 53.973 C 176.789 53.768,177.428 53.600,178.000 53.600 C 178.572 53.600,179.264 53.375,179.538 53.100 C 180.156 52.479,185.309 51.630,187.200 51.838 C 187.970 51.922,189.320 52.017,190.200 52.048 M176.064 59.092 L 175.128 60.099 177.064 62.066 C 179.630 64.672,180.938 64.667,181.126 62.049 C 181.365 58.711,178.158 56.838,176.064 59.092 M75.507 77.486 C 74.906 77.577,73.826 77.579,73.107 77.490 C 72.388 77.401,72.880 77.326,74.200 77.324 C 75.520 77.322,76.108 77.395,75.507 77.486 " stroke="none" fill="#6189d6" fill-rule="evenodd"></path><path id="path1" d="M170.700 13.482 C 171.195 13.578,172.005 13.578,172.500 13.482 C 172.995 13.387,172.590 13.309,171.600 13.309 C 170.610 13.309,170.205 13.387,170.700 13.482 M238.305 13.483 C 238.802 13.579,239.522 13.575,239.905 13.475 C 240.287 13.375,239.880 13.296,239.000 13.301 C 238.120 13.305,237.807 13.387,238.305 13.483 M197.600 17.269 C 192.650 17.417,187.700 17.733,186.600 17.972 C 182.837 18.788,177.367 19.517,172.983 19.788 C 167.807 20.108,167.696 20.132,164.600 21.578 C 163.280 22.195,161.030 22.913,159.600 23.173 C 158.170 23.433,155.290 24.241,153.200 24.968 C 151.110 25.695,148.411 26.417,147.202 26.572 C 145.974 26.729,144.120 27.355,143.002 27.989 C 141.901 28.614,140.049 29.404,138.886 29.745 C 137.724 30.086,135.924 30.804,134.886 31.340 C 133.849 31.876,132.370 32.550,131.600 32.839 C 130.830 33.128,129.390 33.874,128.400 34.498 C 127.410 35.122,125.684 35.899,124.565 36.226 C 123.445 36.552,121.931 37.260,121.200 37.800 C 120.469 38.339,119.225 38.990,118.435 39.247 C 117.646 39.503,116.121 40.408,115.048 41.257 C 113.974 42.105,112.869 42.800,112.593 42.800 C 112.316 42.800,111.210 43.405,110.136 44.144 C 109.061 44.884,107.816 45.605,107.369 45.746 C 106.922 45.888,105.835 46.678,104.953 47.502 C 104.071 48.326,102.820 49.318,102.175 49.706 C 97.855 52.304,95.890 53.587,95.475 54.078 C 94.832 54.840,91.527 57.529,89.425 59.000 C 83.189 63.363,82.721 64.224,86.612 64.162 C 88.460 64.133,89.575 63.833,91.541 62.836 C 93.345 61.921,94.854 61.483,96.741 61.327 C 98.390 61.191,100.434 60.660,102.121 59.930 C 103.618 59.282,106.373 58.485,108.243 58.159 C 110.199 57.817,112.632 57.063,113.970 56.384 C 115.775 55.466,117.200 55.109,120.339 54.787 C 122.564 54.559,125.782 53.915,127.492 53.357 C 129.201 52.799,132.040 52.164,133.800 51.948 C 135.560 51.731,140.053 50.913,143.784 50.131 C 148.998 49.038,152.099 48.632,157.184 48.377 C 161.386 48.166,165.552 47.689,168.600 47.069 C 176.740 45.415,198.863 44.540,201.650 45.762 C 204.337 46.941,204.007 50.715,201.072 52.360 C 199.216 53.401,197.603 55.067,197.092 56.469 C 196.664 57.646,199.065 57.715,241.400 57.758 C 277.224 57.795,282.741 57.878,283.677 58.400 C 285.486 59.408,289.193 63.227,289.448 64.345 C 289.580 64.925,289.938 66.171,290.244 67.114 C 290.976 69.370,290.947 71.626,290.149 74.365 C 288.631 79.583,288.169 80.126,283.200 82.545 L 279.800 84.200 172.800 84.228 C 113.950 84.243,65.350 84.390,64.800 84.554 C 62.054 85.376,61.529 85.767,60.534 87.731 C 58.449 91.844,59.951 96.215,63.800 97.239 C 66.920 98.069,84.574 98.448,114.600 98.331 C 146.740 98.206,147.474 98.238,149.054 99.817 C 150.395 101.158,150.385 104.710,149.034 107.073 C 146.832 110.923,142.178 110.745,242.400 110.627 C 339.583 110.512,329.069 110.111,333.429 114.096 C 336.252 116.676,336.795 117.862,338.214 124.551 C 338.379 125.328,337.146 129.385,336.200 131.181 C 335.462 132.580,332.101 135.754,330.400 136.657 C 329.221 137.282,328.083 137.400,323.200 137.400 C 320.010 137.400,272.670 137.345,218.000 137.278 C 69.594 137.097,33.583 137.159,31.987 137.599 C 26.642 139.075,24.862 144.885,28.492 149.009 C 31.534 152.465,27.414 152.189,77.400 152.286 C 131.926 152.391,127.577 151.794,126.606 159.039 C 125.981 163.698,126.954 164.753,132.000 164.883 C 132.770 164.903,180.290 164.885,237.600 164.842 C 356.412 164.754,349.857 164.574,352.961 168.009 C 358.068 173.663,357.563 181.748,351.695 188.252 C 350.983 189.041,346.689 190.296,342.400 190.968 C 341.371 191.129,161.343 191.249,148.200 191.097 C 120.599 190.778,21.822 191.317,20.000 191.796 C 16.683 192.668,16.280 193.378,16.478 197.997 C 16.665 202.368,17.098 203.312,19.327 204.204 C 21.612 205.118,54.512 205.661,88.400 205.343 L 115.800 205.086 117.675 205.975 C 120.165 207.156,120.617 207.966,121.100 212.107 C 121.606 216.452,121.752 216.622,125.307 217.029 C 126.898 217.211,177.340 217.374,237.400 217.392 C 337.099 217.420,346.726 217.479,348.050 218.070 C 349.608 218.766,352.146 221.123,354.400 223.967 C 358.527 229.176,355.839 239.844,349.672 242.735 L 347.400 243.800 187.600 244.000 C 31.930 244.195,27.768 244.219,26.554 244.954 C 21.825 247.818,21.575 254.493,26.089 257.400 L 28.573 259.000 75.460 259.045 C 134.181 259.102,129.246 258.578,131.217 264.960 C 132.867 270.304,135.342 271.395,145.200 271.128 C 147.730 271.059,184.900 271.092,227.800 271.201 C 270.700 271.311,310.570 271.328,316.400 271.240 C 330.183 271.033,331.839 271.428,335.396 275.769 C 337.929 278.861,338.651 282.486,337.592 286.800 C 336.419 291.575,336.085 292.282,334.553 293.229 C 333.809 293.689,333.200 294.197,333.200 294.359 C 333.200 294.946,330.313 296.006,327.541 296.436 C 325.518 296.750,285.877 296.895,190.049 296.939 L 55.400 297.000 53.400 298.057 C 50.961 299.345,50.276 300.115,49.669 302.246 C 48.755 305.453,49.085 307.282,51.008 309.670 C 52.819 311.920,49.752 311.784,103.600 312.000 C 150.514 312.188,153.470 312.241,154.600 312.915 C 158.007 314.946,161.254 318.165,162.846 321.090 C 163.202 321.743,164.151 322.780,164.957 323.394 L 166.421 324.511 222.511 324.473 C 253.360 324.452,279.646 324.593,280.925 324.786 C 283.284 325.143,283.441 325.247,288.119 329.540 C 289.634 330.932,292.048 336.867,291.886 338.805 C 291.609 342.126,288.043 346.486,283.200 349.423 L 280.600 351.000 240.354 351.070 C 197.683 351.144,196.628 351.189,196.875 352.920 C 196.948 353.431,197.517 354.046,198.242 354.398 C 202.279 356.356,204.491 359.572,203.046 361.383 L 202.103 362.566 193.637 362.695 C 188.978 362.766,184.504 362.649,183.686 362.435 C 182.869 362.222,178.240 361.847,173.400 361.603 C 156.159 360.733,154.017 360.526,150.811 359.419 C 148.359 358.573,146.670 358.326,141.403 358.047 C 135.579 357.738,134.784 357.606,132.836 356.618 C 131.341 355.861,129.167 355.293,125.683 354.751 C 122.931 354.323,120.526 353.878,120.338 353.762 C 120.151 353.646,119.143 353.400,118.099 353.216 C 112.536 352.233,108.732 351.127,107.080 350.012 C 105.633 349.035,104.645 348.745,101.597 348.400 C 99.328 348.143,96.773 347.540,95.040 346.853 C 90.889 345.207,86.840 344.269,86.197 344.803 C 85.228 345.606,85.990 347.178,87.800 348.110 C 88.460 348.450,90.710 350.287,92.800 352.192 C 96.598 355.655,97.610 356.398,102.625 359.400 C 104.095 360.280,106.097 361.675,107.073 362.500 C 108.050 363.325,109.063 364.000,109.324 364.001 C 109.586 364.001,110.430 364.541,111.200 365.201 C 111.970 365.860,113.500 366.692,114.600 367.049 C 115.700 367.406,117.379 368.205,118.331 368.824 C 119.283 369.443,120.633 370.068,121.331 370.213 C 122.029 370.358,123.261 370.996,124.069 371.632 C 124.877 372.268,126.507 373.151,127.691 373.593 C 128.874 374.036,130.429 374.831,131.145 375.359 C 131.861 375.887,133.103 376.443,133.905 376.593 C 135.442 376.882,138.190 378.137,139.200 379.013 C 139.530 379.300,140.957 379.742,142.370 379.997 C 143.784 380.252,146.124 381.048,147.570 381.765 C 149.034 382.491,151.530 383.298,153.200 383.585 C 154.850 383.868,157.019 384.421,158.021 384.813 C 159.022 385.205,161.812 385.821,164.221 386.183 C 166.629 386.544,170.220 387.357,172.200 387.990 C 181.616 390.999,231.547 391.025,237.156 388.024 C 237.943 387.602,238.473 387.499,243.400 386.809 C 248.385 386.111,251.341 385.552,252.046 385.175 C 252.401 384.985,254.471 384.360,256.646 383.786 C 258.821 383.212,261.502 382.238,262.605 381.622 C 263.707 381.005,266.043 380.107,267.796 379.627 C 269.549 379.146,271.527 378.425,272.191 378.025 C 272.856 377.625,274.390 377.074,275.600 376.801 C 276.810 376.528,278.700 375.807,279.800 375.200 C 280.900 374.592,282.520 373.865,283.400 373.585 C 284.280 373.304,285.630 372.569,286.400 371.953 C 287.170 371.336,288.598 370.551,289.573 370.208 C 290.547 369.865,291.897 369.172,292.573 368.668 C 293.248 368.163,294.430 367.511,295.200 367.217 C 295.970 366.924,297.230 366.205,298.000 365.620 C 298.770 365.035,300.030 364.307,300.800 364.002 C 301.570 363.697,302.997 362.847,303.971 362.113 C 304.945 361.380,306.150 360.677,306.650 360.552 C 307.149 360.426,307.816 359.930,308.131 359.449 C 308.446 358.968,310.286 357.591,312.219 356.387 C 314.153 355.184,316.396 353.570,317.205 352.800 C 319.801 350.328,325.328 345.387,327.800 343.328 C 330.832 340.801,342.000 329.634,342.000 329.128 C 342.000 328.920,343.322 327.362,344.938 325.665 C 346.553 323.969,348.356 321.820,348.944 320.889 C 349.532 319.958,350.966 318.072,352.131 316.698 C 353.296 315.324,354.764 313.300,355.391 312.200 C 356.019 311.100,356.833 309.840,357.200 309.400 C 357.934 308.520,359.586 305.818,361.327 302.650 C 361.946 301.523,362.784 300.240,363.188 299.800 C 363.593 299.360,364.188 298.357,364.512 297.571 C 364.835 296.785,365.621 295.525,366.257 294.771 C 367.757 292.995,370.682 287.026,370.992 285.110 C 371.124 284.290,371.765 282.607,372.416 281.369 C 373.067 280.131,373.600 278.894,373.600 278.620 C 373.600 278.345,374.222 276.949,374.981 275.517 C 375.741 274.085,376.913 271.493,377.586 269.757 C 378.258 268.021,378.983 266.293,379.197 265.917 C 379.410 265.542,379.697 264.462,379.834 263.517 C 380.278 260.458,381.237 257.101,382.222 255.156 C 382.848 253.922,383.327 252.008,383.588 249.703 C 383.809 247.751,384.360 245.083,384.812 243.776 C 386.009 240.314,386.346 238.574,386.795 233.524 C 387.923 220.839,388.337 216.825,388.554 216.474 C 388.876 215.954,388.934 197.740,388.616 197.226 C 388.478 197.002,388.195 194.070,387.989 190.709 C 387.270 179.024,386.826 174.577,385.999 170.800 C 384.940 165.964,384.148 161.450,383.653 157.442 C 383.396 155.355,382.983 153.903,382.436 153.164 C 381.981 152.548,381.164 150.330,380.619 148.235 C 380.075 146.140,379.289 143.745,378.872 142.913 C 378.455 142.081,377.710 140.052,377.217 138.405 C 376.723 136.758,376.005 134.958,375.621 134.405 C 374.788 133.207,374.000 131.000,374.000 129.867 C 374.000 129.419,373.660 128.321,373.244 127.426 C 372.829 126.532,372.008 124.721,371.421 123.401 C 370.834 122.082,370.017 120.642,369.606 120.201 C 369.194 119.761,368.464 118.344,367.983 117.054 C 367.502 115.764,366.750 114.350,366.313 113.913 C 365.876 113.476,365.069 112.137,364.520 110.937 C 363.971 109.738,363.133 108.337,362.658 107.825 C 362.183 107.312,361.543 106.197,361.235 105.346 C 360.928 104.496,360.196 103.170,359.609 102.400 C 356.445 98.252,355.200 96.489,355.200 96.157 C 355.200 95.181,351.057 89.279,348.581 86.728 C 347.051 85.153,345.530 83.465,345.200 82.978 C 342.674 79.249,341.101 77.539,335.034 71.928 C 333.293 70.318,330.384 67.560,328.569 65.800 C 322.232 59.654,315.882 54.325,312.601 52.400 C 310.478 51.155,308.081 49.442,305.786 47.530 C 304.816 46.722,303.616 45.932,303.120 45.775 C 302.624 45.617,301.355 44.894,300.299 44.168 C 299.243 43.441,297.979 42.721,297.489 42.567 C 297.000 42.412,295.926 41.710,295.103 41.007 C 294.280 40.304,292.927 39.525,292.097 39.276 C 291.267 39.028,289.963 38.363,289.199 37.799 C 288.435 37.236,286.937 36.515,285.871 36.199 C 284.804 35.882,283.328 35.093,282.590 34.445 C 281.703 33.666,280.461 33.108,278.924 32.797 C 277.646 32.539,276.001 31.982,275.269 31.559 C 274.537 31.137,272.737 30.411,271.269 29.948 C 269.801 29.484,267.790 28.606,266.800 27.997 C 265.810 27.388,264.100 26.762,263.000 26.607 C 261.900 26.452,259.470 25.828,257.600 25.219 C 255.730 24.611,252.670 23.646,250.800 23.074 C 248.930 22.503,246.818 21.605,246.106 21.080 C 244.961 20.233,244.233 20.095,239.741 19.867 C 233.012 19.526,223.230 18.504,220.000 17.805 C 216.749 17.101,209.227 16.921,197.600 17.269 " stroke="none" fill="#1c63e2" fill-rule="evenodd"></path></g></svg>